<svg width="1920" height="1080" viewBox="0 0 1920 1080" fill="none" xmlns="http://www.w3.org/2000/svg">
<rect width="1920" height="1080" fill="url(#paint0_linear_40_2)"/>
<path d="M609.837 604.317C641.25 604.317 666.583 586.475 675.395 557.941H632.472C628.33 565.256 619.915 569.667 609.837 569.667C596.212 569.667 587.092 562.253 584.284 547.909H677.245C677.807 544.037 678.137 540.275 678.137 536.502C678.137 499.817 650.194 471.052 609.837 471.052C570.538 471.052 541.823 499.256 541.823 537.591C541.823 575.794 570.769 604.317 609.837 604.317ZM635.655 524.05H585.033C588.524 511.631 597.259 504.811 609.837 504.811C622.845 504.811 631.866 511.543 635.655 524.05ZM756.218 604.306C770.757 604.306 783.754 599.532 793.998 591.238L797.699 600.082H831.039V475.023H798.888L794.482 484.703C784.129 476.178 770.967 471.261 756.218 471.261C717.932 471.261 690.562 498.816 690.562 537.547C690.562 576.41 717.932 604.317 756.218 604.317V604.306ZM761.99 566.169C745.832 566.169 733.958 553.981 733.958 537.646C733.958 521.421 745.733 509.233 761.99 509.233C778.137 509.233 790.011 521.421 790.011 537.646C790.011 553.981 778.137 566.169 761.99 566.169ZM906.532 604.306C939.795 604.306 961.879 587.212 961.879 561.076C961.879 529.363 935.588 525.26 915.806 521.751C903.91 519.628 894.328 517.967 894.328 510.861C894.328 505.064 898.976 501.643 905.893 501.643C913.713 501.643 919.077 505.35 919.077 513.336H959.467C958.982 488.003 938.319 471.063 906.422 471.063C874.348 471.063 852.958 487.233 852.958 512.313C852.958 542.64 878.698 548.492 898.117 551.627C910.144 553.618 919.617 555.675 919.617 562.891C919.617 569.348 913.636 572.571 907.325 572.571C899.152 572.571 892.786 568.358 892.786 559.217H851.262C851.658 586.31 872.398 604.317 906.532 604.317V604.306ZM995.748 646.744C1028.09 646.744 1043.59 632.917 1060.48 594.648L1112.95 475.155H1066.63L1041.85 544.048L1015.29 475.155H968.422L1020.17 589.885C1014.33 605.439 1009.34 609.729 992.852 609.729H980.978V646.744H995.748ZM1199.56 604.306C1238.11 604.306 1265.35 576.641 1265.35 537.778C1265.35 498.915 1238.12 471.25 1199.56 471.25C1188.58 471.165 1177.8 474.152 1168.44 479.874V430H1125.82V600.214H1157.73L1161.8 590.93C1171.97 599.411 1184.95 604.306 1199.56 604.306ZM1193.8 566.169C1177.64 566.169 1165.77 553.981 1165.77 537.789C1165.77 521.443 1177.64 509.255 1193.8 509.255C1209.95 509.255 1221.82 521.443 1221.82 537.778C1221.82 553.981 1209.85 566.169 1193.8 566.169ZM1343.57 604.306C1358.11 604.306 1371.11 599.532 1381.35 591.238L1385.05 600.082H1418.39V475.023H1386.25L1381.84 484.703C1371.49 476.178 1358.32 471.261 1343.57 471.261C1305.29 471.261 1277.93 498.816 1277.93 537.547C1277.93 576.41 1305.29 604.317 1343.57 604.317V604.306ZM1349.34 566.169C1333.19 566.169 1321.31 553.981 1321.31 537.646C1321.31 521.421 1333.1 509.233 1349.34 509.233C1365.5 509.233 1377.37 521.421 1377.37 537.646C1377.37 553.981 1365.5 566.169 1349.34 566.169ZM1488.71 600.214V533.433C1488.71 517.516 1496.44 508.133 1509.89 508.133C1520.75 508.133 1526.22 515.36 1526.22 529.913V600.203H1569.34V523.973C1569.34 492.106 1550.26 471.47 1521.18 471.47C1504.99 471.47 1491.08 477.685 1481.75 488.058L1475.83 475.166H1445.58V600.225H1488.71V600.214ZM1640.13 600.214V547.326L1671.5 600.214H1722.35L1679.37 534.764L1718.39 475.155H1669.96L1640.13 524.149V430H1597V600.214H1640.13Z" fill="#2D314D"/>
<path fill-rule="evenodd" clip-rule="evenodd" d="M312.977 430L194 646.744H259.932L378.921 430H312.977Z" fill="url(#paint1_linear_40_2)"/>
<path opacity="0.5" fill-rule="evenodd" clip-rule="evenodd" d="M394.142 430L275.154 646.744H341.086L460.075 430H394.142Z" fill="url(#paint2_linear_40_2)"/>
<path opacity="0.15" fill-rule="evenodd" clip-rule="evenodd" d="M475.297 430L356.319 646.744H422.251L541.229 430H475.297Z" fill="url(#paint3_linear_40_2)"/>
<defs>
<linearGradient id="paint0_linear_40_2" x1="960" y1="0" x2="960" y2="1080" gradientUnits="userSpaceOnUse">
<stop stop-color="#EEDDDD"/>
<stop offset="1" stop-color="#CCBBAA"/>
</linearGradient>
<linearGradient id="paint1_linear_40_2" x1="13544.3" y1="429.999" x2="751.232" y2="20386.8" gradientUnits="userSpaceOnUse">
<stop stop-color="#33D35E"/>
<stop offset="1" stop-color="#2AB6D9"/>
</linearGradient>
<linearGradient id="paint2_linear_40_2" x1="13625.5" y1="429.999" x2="832.386" y2="20386.8" gradientUnits="userSpaceOnUse">
<stop stop-color="#33D35E"/>
<stop offset="1" stop-color="#2AB6D9"/>
</linearGradient>
<linearGradient id="paint3_linear_40_2" x1="13705.9" y1="429.999" x2="912.436" y2="20386.1" gradientUnits="userSpaceOnUse">
<stop stop-color="#33D35E"/>
<stop offset="1" stop-color="#2AB6D9"/>
</linearGradient>
</defs>
</svg>
