<svg width="1920" height="1080" viewBox="0 0 1920 1080" fill="none" xmlns="http://www.w3.org/2000/svg">
<rect width="1920" height="1080" fill="url(#paint0_linear_40_2)"/>
<path d="M327.803 449.182H375.21L425.281 571.341H427.412L477.483 449.182H524.891V631H487.604V512.658H486.094L439.042 630.112H413.651L366.599 512.214H365.089V631H327.803V449.182ZM617.464 633.663C603.674 633.663 591.748 630.734 581.687 624.874C571.684 618.956 563.961 610.729 558.515 600.194C553.07 589.6 550.348 577.319 550.348 563.351C550.348 549.265 553.07 536.954 558.515 526.419C563.961 515.825 571.684 507.598 581.687 501.739C591.748 495.82 603.674 492.861 617.464 492.861C631.255 492.861 643.151 495.82 653.153 501.739C663.215 507.598 670.968 515.825 676.413 526.419C681.858 536.954 684.581 549.265 684.581 563.351C684.581 577.319 681.858 589.6 676.413 600.194C670.968 610.729 663.215 618.956 653.153 624.874C643.151 630.734 631.255 633.663 617.464 633.663ZM617.642 604.366C623.916 604.366 629.153 602.591 633.356 599.04C637.558 595.429 640.724 590.517 642.855 584.303C645.045 578.088 646.14 571.015 646.14 563.085C646.14 555.154 645.045 548.081 642.855 541.866C640.724 535.652 637.558 530.74 633.356 527.129C629.153 523.519 623.916 521.714 617.642 521.714C611.309 521.714 605.982 523.519 601.662 527.129C597.4 530.74 594.175 535.652 591.985 541.866C589.854 548.081 588.789 555.154 588.789 563.085C588.789 571.015 589.854 578.088 591.985 584.303C594.175 590.517 597.4 595.429 601.662 599.04C605.982 602.591 611.309 604.366 617.642 604.366ZM781.704 494.636V523.045H699.584V494.636H781.704ZM718.228 461.966H756.047V589.097C756.047 592.589 756.58 595.311 757.645 597.264C758.711 599.158 760.19 600.49 762.084 601.259C764.037 602.029 766.287 602.413 768.831 602.413C770.607 602.413 772.383 602.265 774.158 601.969C775.934 601.614 777.295 601.348 778.242 601.17L784.19 629.313C782.296 629.905 779.633 630.586 776.2 631.355C772.767 632.184 768.595 632.687 763.682 632.864C754.568 633.219 746.578 632.006 739.712 629.224C732.906 626.443 727.609 622.122 723.821 616.263C720.033 610.403 718.169 603.005 718.228 594.068V461.966ZM866.488 633.663C852.698 633.663 840.772 630.734 830.71 624.874C820.708 618.956 812.984 610.729 807.539 600.194C802.094 589.6 799.371 577.319 799.371 563.351C799.371 549.265 802.094 536.954 807.539 526.419C812.984 515.825 820.708 507.598 830.71 501.739C840.772 495.82 852.698 492.861 866.488 492.861C880.278 492.861 892.174 495.82 902.177 501.739C912.238 507.598 919.992 515.825 925.437 526.419C930.882 536.954 933.604 549.265 933.604 563.351C933.604 577.319 930.882 589.6 925.437 600.194C919.992 610.729 912.238 618.956 902.177 624.874C892.174 630.734 880.278 633.663 866.488 633.663ZM866.665 604.366C872.939 604.366 878.177 602.591 882.379 599.04C886.581 595.429 889.748 590.517 891.878 584.303C894.068 578.088 895.163 571.015 895.163 563.085C895.163 555.154 894.068 548.081 891.878 541.866C889.748 535.652 886.581 530.74 882.379 527.129C878.177 523.519 872.939 521.714 866.665 521.714C860.332 521.714 855.006 523.519 850.685 527.129C846.424 530.74 843.198 535.652 841.008 541.866C838.878 548.081 837.812 555.154 837.812 563.085C837.812 571.015 838.878 578.088 841.008 584.303C843.198 590.517 846.424 595.429 850.685 599.04C855.006 602.591 860.332 604.366 866.665 604.366ZM958.196 631V494.636H994.861V518.429H996.282C998.768 509.965 1002.94 503.573 1008.8 499.253C1014.66 494.873 1021.41 492.683 1029.04 492.683C1030.93 492.683 1032.98 492.802 1035.17 493.038C1037.36 493.275 1039.28 493.601 1040.94 494.015V527.573C1039.16 527.04 1036.71 526.567 1033.57 526.153C1030.43 525.738 1027.56 525.531 1024.96 525.531C1019.39 525.531 1014.42 526.745 1010.04 529.171C1005.72 531.539 1002.29 534.853 999.744 539.114C997.258 543.376 996.015 548.288 996.015 553.852V631H958.196ZM1173.95 533.521L1139.33 535.652C1138.73 532.693 1137.46 530.029 1135.51 527.662C1133.56 525.235 1130.98 523.312 1127.78 521.891C1124.65 520.412 1120.89 519.672 1116.51 519.672C1110.65 519.672 1105.71 520.915 1101.68 523.401C1097.66 525.827 1095.65 529.082 1095.65 533.166C1095.65 536.421 1096.95 539.174 1099.55 541.423C1102.16 543.672 1106.63 545.477 1112.96 546.838L1137.64 551.81C1150.9 554.532 1160.78 558.912 1167.29 564.949C1173.8 570.986 1177.06 578.917 1177.06 588.741C1177.06 597.679 1174.42 605.521 1169.16 612.268C1163.95 619.015 1156.79 624.282 1147.67 628.07C1138.62 631.799 1128.17 633.663 1116.33 633.663C1098.28 633.663 1083.9 629.905 1073.19 622.388C1062.53 614.813 1056.29 604.514 1054.45 591.494L1091.65 589.54C1092.78 595.045 1095.5 599.247 1099.82 602.147C1104.14 604.988 1109.67 606.408 1116.42 606.408C1123.05 606.408 1128.38 605.136 1132.4 602.591C1136.49 599.987 1138.56 596.643 1138.62 592.559C1138.56 589.126 1137.11 586.315 1134.27 584.125C1131.42 581.876 1127.04 580.16 1121.13 578.976L1097.51 574.271C1084.19 571.607 1074.28 566.991 1067.77 560.421C1061.32 553.852 1058.09 545.477 1058.09 535.297C1058.09 526.537 1060.46 518.991 1065.2 512.658C1069.99 506.326 1076.71 501.443 1085.35 498.01C1094.05 494.577 1104.23 492.861 1115.89 492.861C1133.11 492.861 1146.67 496.501 1156.55 503.781C1166.49 511.06 1172.29 520.974 1173.95 533.521ZM1320.77 572.513L1300 573.791C1299.64 572.016 1298.88 570.418 1297.71 568.997C1296.53 567.541 1294.99 566.387 1293.07 565.535C1291.19 564.647 1288.94 564.203 1286.31 564.203C1282.79 564.203 1279.83 564.949 1277.41 566.44C1275 567.896 1273.79 569.849 1273.79 572.3C1273.79 574.253 1274.57 575.904 1276.13 577.254C1277.7 578.603 1280.38 579.686 1284.18 580.503L1298.99 583.486C1306.94 585.119 1312.87 587.747 1316.78 591.369C1320.68 594.991 1322.64 599.75 1322.64 605.645C1322.64 611.007 1321.06 615.712 1317.89 619.761C1314.77 623.809 1310.47 626.969 1305 629.242C1299.57 631.479 1293.3 632.598 1286.2 632.598C1275.37 632.598 1266.74 630.343 1260.31 625.833C1253.92 621.288 1250.17 615.109 1249.07 607.296L1271.39 606.124C1272.07 609.427 1273.7 611.948 1276.29 613.688C1278.89 615.393 1282.21 616.245 1286.25 616.245C1290.23 616.245 1293.43 615.482 1295.84 613.955C1298.29 612.392 1299.54 610.386 1299.57 607.935C1299.54 605.876 1298.67 604.189 1296.96 602.875C1295.26 601.526 1292.63 600.496 1289.08 599.786L1274.91 596.962C1266.92 595.364 1260.97 592.594 1257.06 588.653C1253.19 584.711 1251.26 579.686 1251.26 573.578C1251.26 568.322 1252.68 563.795 1255.52 559.995C1258.4 556.195 1262.43 553.266 1267.61 551.206C1272.83 549.146 1278.94 548.116 1285.93 548.116C1296.27 548.116 1304.4 550.3 1310.33 554.668C1316.3 559.036 1319.78 564.984 1320.77 572.513ZM1359.62 583.699V631H1336.92V521.909H1358.98V563.617H1359.94C1361.78 558.788 1364.77 555.006 1368.88 552.271C1373 549.501 1378.17 548.116 1384.39 548.116C1390.07 548.116 1395.02 549.359 1399.25 551.845C1403.51 554.295 1406.81 557.829 1409.15 562.445C1411.53 567.026 1412.71 572.513 1412.67 578.905V631H1389.98V582.953C1390.01 577.911 1388.74 573.987 1386.14 571.181C1383.59 568.376 1380 566.973 1375.38 566.973C1372.29 566.973 1369.56 567.63 1367.18 568.944C1364.84 570.258 1362.99 572.175 1361.64 574.697C1360.33 577.183 1359.65 580.183 1359.62 583.699ZM1467.5 632.598C1459.22 632.598 1452.07 630.84 1446.03 627.325C1440.03 623.773 1435.39 618.837 1432.13 612.516C1428.86 606.16 1427.23 598.791 1427.23 590.411C1427.23 581.959 1428.86 574.572 1432.13 568.251C1435.39 561.895 1440.03 556.959 1446.03 553.443C1452.07 549.892 1459.22 548.116 1467.5 548.116C1475.77 548.116 1482.91 549.892 1488.91 553.443C1494.95 556.959 1499.6 561.895 1502.86 568.251C1506.13 574.572 1507.77 581.959 1507.77 590.411C1507.77 598.791 1506.13 606.16 1502.86 612.516C1499.6 618.837 1494.95 623.773 1488.91 627.325C1482.91 630.84 1475.77 632.598 1467.5 632.598ZM1467.6 615.02C1471.37 615.02 1474.51 613.955 1477.03 611.824C1479.55 609.658 1481.45 606.71 1482.73 602.982C1484.04 599.253 1484.7 595.009 1484.7 590.251C1484.7 585.492 1484.04 581.249 1482.73 577.52C1481.45 573.791 1479.55 570.844 1477.03 568.678C1474.51 566.511 1471.37 565.428 1467.6 565.428C1463.8 565.428 1460.61 566.511 1458.01 568.678C1455.46 570.844 1453.52 573.791 1452.21 577.52C1450.93 581.249 1450.29 585.492 1450.29 590.251C1450.29 595.009 1450.93 599.253 1452.21 602.982C1453.52 606.71 1455.46 609.658 1458.01 611.824C1460.61 613.955 1463.8 615.02 1467.6 615.02ZM1522.52 661.682V549.182H1544.89V562.925H1545.9C1546.9 560.723 1548.34 558.486 1550.22 556.213C1552.14 553.905 1554.62 551.987 1557.68 550.46C1560.77 548.898 1564.6 548.116 1569.18 548.116C1575.15 548.116 1580.65 549.679 1585.69 552.804C1590.74 555.893 1594.77 560.563 1597.79 566.813C1600.81 573.028 1602.31 580.822 1602.31 590.197C1602.31 599.324 1600.84 607.03 1597.89 613.315C1594.98 619.565 1591 624.306 1585.96 627.538C1580.95 630.734 1575.34 632.332 1569.13 632.332C1564.73 632.332 1560.98 631.604 1557.89 630.148C1554.84 628.692 1552.33 626.863 1550.38 624.661C1548.43 622.424 1546.93 620.169 1545.9 617.896H1545.21V661.682H1522.52ZM1544.73 590.091C1544.73 594.956 1545.41 599.2 1546.76 602.822C1548.11 606.444 1550.06 609.267 1552.62 611.291C1555.17 613.28 1558.28 614.274 1561.94 614.274C1565.63 614.274 1568.76 613.262 1571.31 611.238C1573.87 609.178 1575.81 606.337 1577.12 602.715C1578.47 599.058 1579.14 594.849 1579.14 590.091C1579.14 585.368 1578.49 581.213 1577.17 577.626C1575.86 574.04 1573.92 571.234 1571.37 569.21C1568.81 567.186 1565.67 566.174 1561.94 566.174C1558.24 566.174 1555.12 567.151 1552.56 569.104C1550.04 571.057 1548.11 573.827 1546.76 577.413C1545.41 581 1544.73 585.226 1544.73 590.091Z" fill="url(#paint1_linear_40_2)"/>
<defs>
<linearGradient id="paint0_linear_40_2" x1="960" y1="0" x2="960" y2="1080" gradientUnits="userSpaceOnUse">
<stop stop-color="#EEDDDD"/>
<stop offset="1" stop-color="#CCBBAA"/>
</linearGradient>
<linearGradient id="paint1_linear_40_2" x1="961" y1="541" x2="1609" y2="541" gradientUnits="userSpaceOnUse">
<stop/>
<stop offset="1" stop-color="#5126EA"/>
</linearGradient>
</defs>
</svg>
