<svg width="1920" height="1080" viewBox="0 0 1920 1080" fill="none" xmlns="http://www.w3.org/2000/svg">
<rect width="1920" height="1080" fill="url(#paint0_linear_40_2)"/>
<path d="M546 535.5H547.75C550.917 532.333 554.583 529.417 558.75 526.75C562.25 524.417 566.417 522.333 571.25 520.5C576.083 518.667 581.5 517.75 587.5 517.75C596.167 517.75 603.333 520 609 524.5C614.667 528.833 617.5 534.833 617.5 542.5C617.5 544.833 617.25 547.5 616.75 550.5C616.25 553.333 615.667 556.417 615 559.75C614.333 562.917 613.583 566.167 612.75 569.5C612.083 572.667 611.5 575.583 611 578.25L600.5 627H549.75L563.5 561.75C563.833 559.583 564.25 557.417 564.75 555.25C565.25 552.917 565.5 550.833 565.5 549C565.5 546.5 564.833 544.5 563.5 543C562.333 541.333 560.5 540.5 558 540.5C555 540.5 552.083 541.583 549.25 543.75C546.583 545.917 544.5 547.833 543 549.5L526.5 627H475.5L511 459H562.25L546 535.5ZM642.484 528.75C650.984 524.583 659.651 521.583 668.484 519.75C677.484 517.75 687.484 516.75 698.484 516.75C709.151 516.75 717.984 517.583 724.984 519.25C731.984 520.917 737.568 523.333 741.734 526.5C745.901 529.667 748.818 533.417 750.484 537.75C752.151 542.083 752.984 547 752.984 552.5C752.984 555.667 752.734 559.083 752.234 562.75C751.901 566.417 751.484 569.5 750.984 572L739.234 627H698.984L694.484 611H692.984C687.651 616.833 681.401 621.333 674.234 624.5C667.234 627.5 660.234 629 653.234 629C649.234 629 645.318 628.417 641.484 627.25C637.651 626.083 634.234 624.333 631.234 622C628.234 619.5 625.818 616.417 623.984 612.75C622.151 608.917 621.234 604.333 621.234 599C621.234 590.333 623.568 583.5 628.234 578.5C633.068 573.333 639.318 569.5 646.984 567C654.818 564.333 663.568 562.667 673.234 562C683.068 561.333 692.901 561 702.734 561C703.068 559.333 703.484 557 703.984 554C704.484 550.833 704.734 548.083 704.734 545.75C704.734 542.75 703.901 540 702.234 537.5C700.734 534.833 697.484 533.5 692.484 533.5C686.651 533.5 682.318 535.25 679.484 538.75C676.818 542.083 675.068 546.167 674.234 551H637.734L642.484 528.75ZM699.984 572.75H695.484C690.651 572.75 686.484 573.417 682.984 574.75C679.651 575.917 676.901 577.5 674.734 579.5C672.734 581.5 671.234 583.75 670.234 586.25C669.234 588.75 668.734 591.25 668.734 593.75C668.734 597.75 669.734 600.75 671.734 602.75C673.901 604.75 676.401 605.75 679.234 605.75C682.734 605.75 686.151 604.5 689.484 602C692.984 599.5 695.151 596.167 695.984 592L699.984 572.75ZM800.424 627H759.924L795.424 459H846.674L830.424 535.5H832.174C837.674 529.167 843.84 524.667 850.674 522C857.674 519.167 864.59 517.75 871.424 517.75C877.257 517.75 882.09 518.667 885.924 520.5C889.924 522.167 893.09 524.5 895.424 527.5C897.757 530.5 899.424 534.083 900.424 538.25C901.424 542.417 901.924 546.833 901.924 551.5C901.924 553.833 901.757 557.333 901.424 562C901.091 566.667 900.341 571.917 899.174 577.75C898.007 583.417 896.34 589.333 894.174 595.5C892.007 601.5 889.09 607 885.424 612C881.924 617 877.424 621.083 871.924 624.25C866.59 627.417 860.174 629 852.674 629C848.174 629 843.757 628.5 839.424 627.5C835.257 626.5 831.424 625.167 827.924 623.5C824.59 621.833 821.59 619.917 818.924 617.75C816.424 615.417 814.59 613.083 813.424 610.75H811.674L800.424 627ZM828.674 604.75C832.674 604.75 836.007 602.667 838.674 598.5C841.34 594.167 843.507 589.167 845.174 583.5C846.841 577.667 848.007 571.917 848.674 566.25C849.507 560.417 849.924 556.083 849.924 553.25C849.924 549.917 849.341 547.167 848.174 545C847.174 542.833 845.257 541.75 842.424 541.75C839.09 541.75 836.007 543 833.174 545.5C830.34 547.833 828.257 549.833 826.924 551.5L817.174 596.25C818.34 598.25 819.84 600.167 821.674 602C823.674 603.833 826.007 604.75 828.674 604.75ZM956.914 627H906.164L928.914 519.5H980.164L956.914 627ZM986.664 486.75C986.664 490.583 985.831 493.917 984.164 496.75C982.664 499.583 980.581 502 977.914 504C975.414 506 972.497 507.5 969.164 508.5C965.831 509.5 962.414 510 958.914 510C952.247 510 946.664 508.417 942.164 505.25C937.664 502.083 935.414 497.083 935.414 490.25C935.414 486.583 936.164 483.333 937.664 480.5C939.164 477.5 941.164 475.083 943.664 473.25C946.331 471.25 949.331 469.75 952.664 468.75C956.164 467.75 959.747 467.25 963.414 467.25C969.914 467.25 975.414 468.833 979.914 472C984.414 475.167 986.664 480.083 986.664 486.75ZM993.406 519.5C999.573 518.167 1004.99 516.667 1009.66 515C1014.32 513.333 1018.57 511.25 1022.41 508.75C1026.41 506.25 1030.16 503.167 1033.66 499.5C1037.32 495.833 1041.24 491.333 1045.41 486H1071.16L1063.91 519.5H1083.41L1080.16 536.25H1060.41L1050.16 585C1049.32 588.833 1048.66 592.25 1048.16 595.25C1047.66 598.25 1047.41 600.583 1047.41 602.25C1047.41 605.583 1048.57 607.667 1050.91 608.5C1053.41 609.333 1057.99 609.75 1064.66 609.75L1060.91 627C1059.74 627.333 1057.91 627.583 1055.41 627.75C1053.07 627.917 1050.41 628.083 1047.41 628.25C1044.57 628.583 1041.57 628.75 1038.41 628.75C1035.41 628.917 1032.74 629 1030.41 629C1026.24 629 1022.16 628.667 1018.16 628C1014.16 627.5 1010.57 626.417 1007.41 624.75C1004.24 622.917 1001.66 620.333 999.656 617C997.823 613.667 996.906 609.167 996.906 603.5C996.906 601.5 996.99 599 997.156 596C997.49 593 998.073 589.667 998.906 586L1009.41 536.25H989.906L993.406 519.5ZM1173.06 519.5H1224.06L1201.06 627H1160.56L1156.06 611H1154.56C1150.22 616.167 1144.31 620.5 1136.81 624C1129.47 627.333 1122.06 629 1114.56 629C1104.56 629 1096.72 626.5 1091.06 621.5C1085.39 616.333 1082.56 609.667 1082.56 601.5C1082.56 597.333 1083.22 592.167 1084.56 586C1086.06 579.667 1087.39 573.75 1088.56 568.25L1099.06 519.5H1149.81L1137.31 578C1136.97 579.333 1136.64 580.917 1136.31 582.75C1135.97 584.583 1135.64 586.417 1135.31 588.25C1134.97 589.917 1134.64 591.583 1134.31 593.25C1134.14 594.75 1134.06 596 1134.06 597C1134.06 599.5 1134.56 601.667 1135.56 603.5C1136.72 605.167 1138.72 606 1141.56 606C1144.56 606 1147.39 605 1150.06 603C1152.72 601 1154.81 599.083 1156.31 597.25L1173.06 519.5ZM1293.05 535.5C1296.55 532.167 1300.46 529.083 1304.8 526.25C1308.63 523.917 1313.21 521.75 1318.55 519.75C1323.88 517.75 1329.88 516.75 1336.55 516.75C1344.55 516.75 1350.46 518.583 1354.3 522.25C1358.3 525.917 1360.55 530.417 1361.05 535.75H1362.55C1366.38 532.25 1370.55 529.083 1375.05 526.25C1378.88 523.917 1383.38 521.75 1388.55 519.75C1393.71 517.75 1399.21 516.75 1405.05 516.75C1413.71 516.75 1420.71 519.167 1426.05 524C1431.55 528.667 1434.3 534.75 1434.3 542.25C1434.3 546.083 1433.63 551.167 1432.3 557.5C1430.96 563.833 1429.46 570.75 1427.8 578.25L1417.3 627H1368.05L1381.55 561.75C1382.05 559.25 1382.55 556.833 1383.05 554.5C1383.55 552.167 1383.8 550.25 1383.8 548.75C1383.8 546.417 1383.13 544.5 1381.8 543C1380.46 541.333 1378.55 540.5 1376.05 540.5C1372.88 540.5 1369.88 541.667 1367.05 544C1364.38 546.167 1362.3 548 1360.8 549.5L1344.55 627H1297.8L1311.55 561.75C1311.88 559.583 1312.3 557.417 1312.8 555.25C1313.3 552.917 1313.55 550.833 1313.55 549C1313.55 546.5 1312.88 544.5 1311.55 543C1310.38 541.333 1308.55 540.5 1306.05 540.5C1303.05 540.5 1300.13 541.583 1297.3 543.75C1294.63 545.917 1292.55 547.75 1291.05 549.25L1274.55 627H1223.55L1246.3 519.5H1287.05L1291.55 535.5H1293.05Z" fill="#5B21FF"/>
<defs>
<linearGradient id="paint0_linear_40_2" x1="960" y1="0" x2="960" y2="1080" gradientUnits="userSpaceOnUse">
<stop stop-color="#EEDDDD"/>
<stop offset="1" stop-color="#CCBBAA"/>
</linearGradient>
</defs>
</svg>
