<svg id="visual" viewBox="0 0 1280 720" width="1280" height="720" xmlns="http://www.w3.org/2000/svg" xmlns:xlink="http://www.w3.org/1999/xlink" version="1.1"><rect x="0" y="0" width="1280" height="720" fill="#01121E"></rect><g transform="translate(571.415384365388 280.8815270036768)"><path d="M257.8 -366.4C312.9 -314.7 321.9 -211.1 345.5 -117.3C369 -23.5 407.1 60.6 369.5 102.8C332 145 218.9 145.3 144.7 241.2C70.5 337.1 35.3 528.5 -31 571.1C-97.2 613.8 -194.4 507.5 -227.5 398.3C-260.6 289 -229.7 176.8 -209.6 100.7C-189.6 24.5 -180.4 -15.6 -200 -98.9C-219.5 -182.2 -267.9 -308.7 -239.4 -369.1C-210.8 -429.5 -105.4 -423.8 -2.1 -420.9C101.3 -418.1 202.6 -418.2 257.8 -366.4" fill="#001a2c"></path></g></svg>