<svg id="visual" viewBox="0 0 675 900" width="675" height="900" xmlns="http://www.w3.org/2000/svg" xmlns:xlink="http://www.w3.org/1999/xlink" version="1.1"><rect x="0" y="0" width="675" height="900" fill="#01121e"></rect><defs><linearGradient id="grad1_0" x1="0%" y1="0%" x2="100%" y2="100%"><stop offset="30%" stop-color="#00050e" stop-opacity="1"></stop><stop offset="70%" stop-color="#00050e" stop-opacity="1"></stop></linearGradient></defs><defs><linearGradient id="grad1_1" x1="0%" y1="0%" x2="100%" y2="100%"><stop offset="30%" stop-color="#00050e" stop-opacity="1"></stop><stop offset="70%" stop-color="#010a14" stop-opacity="1"></stop></linearGradient></defs><defs><linearGradient id="grad1_2" x1="0%" y1="0%" x2="100%" y2="100%"><stop offset="30%" stop-color="#020e19" stop-opacity="1"></stop><stop offset="70%" stop-color="#010a14" stop-opacity="1"></stop></linearGradient></defs><defs><linearGradient id="grad1_3" x1="0%" y1="0%" x2="100%" y2="100%"><stop offset="30%" stop-color="#020e19" stop-opacity="1"></stop><stop offset="70%" stop-color="#01121e" stop-opacity="1"></stop></linearGradient></defs><defs><linearGradient id="grad2_0" x1="0%" y1="0%" x2="100%" y2="100%"><stop offset="30%" stop-color="#00050e" stop-opacity="1"></stop><stop offset="70%" stop-color="#00050e" stop-opacity="1"></stop></linearGradient></defs><defs><linearGradient id="grad2_1" x1="0%" y1="0%" x2="100%" y2="100%"><stop offset="30%" stop-color="#010a14" stop-opacity="1"></stop><stop offset="70%" stop-color="#00050e" stop-opacity="1"></stop></linearGradient></defs><defs><linearGradient id="grad2_2" x1="0%" y1="0%" x2="100%" y2="100%"><stop offset="30%" stop-color="#010a14" stop-opacity="1"></stop><stop offset="70%" stop-color="#020e19" stop-opacity="1"></stop></linearGradient></defs><defs><linearGradient id="grad2_3" x1="0%" y1="0%" x2="100%" y2="100%"><stop offset="30%" stop-color="#01121e" stop-opacity="1"></stop><stop offset="70%" stop-color="#020e19" stop-opacity="1"></stop></linearGradient></defs><g transform="translate(675, 0)"><path d="M0 450C-20.9 407.3 -41.7 364.5 -71.4 359C-101.1 353.4 -139.6 385.1 -151.9 366.8C-164.3 348.5 -150.4 280.2 -183.3 274.4C-216.3 268.5 -295.9 325.1 -318.2 318.2C-340.5 311.3 -305.3 241 -304.3 203.3C-303.3 165.6 -336.4 160.5 -345.5 143.1C-354.6 125.7 -339.7 96.1 -353.1 70.2C-366.5 44.3 -408.2 22.2 -450 0L0 0Z" fill="#01101c"></path><path d="M0 337.5C-15.6 305.4 -31.3 273.4 -53.6 269.2C-75.8 265.1 -104.7 288.8 -113.9 275.1C-123.2 261.4 -112.8 210.2 -137.5 205.8C-162.2 201.4 -221.9 243.8 -238.6 238.6C-255.3 233.5 -229 180.8 -228.2 152.5C-227.5 124.2 -252.3 120.4 -259.1 107.3C-266 94.3 -254.8 72.1 -264.8 52.7C-274.9 33.3 -306.2 16.6 -337.5 0L0 0Z" fill="#010c17"></path><path d="M0 225C-10.4 203.6 -20.9 182.3 -35.7 179.5C-50.5 176.7 -69.8 192.5 -76 183.4C-82.1 174.2 -75.2 140.1 -91.7 137.2C-108.1 134.3 -148 162.5 -159.1 159.1C-170.2 155.7 -152.7 120.5 -152.2 101.7C-151.7 82.8 -168.2 80.2 -172.8 71.6C-177.3 62.9 -169.8 48.1 -176.5 35.1C-183.2 22.2 -204.1 11.1 -225 0L0 0Z" fill="#010711"></path><path d="M0 112.5C-5.2 101.8 -10.4 91.1 -17.9 89.7C-25.3 88.4 -34.9 96.3 -38 91.7C-41.1 87.1 -37.6 70.1 -45.8 68.6C-54.1 67.1 -74 81.3 -79.5 79.5C-85.1 77.8 -76.3 60.3 -76.1 50.8C-75.8 41.4 -84.1 40.1 -86.4 35.8C-88.7 31.4 -84.9 24 -88.3 17.6C-91.6 11.1 -102.1 5.5 -112.5 0L0 0Z" fill="#00050e"></path></g><g transform="translate(0, 900)"><path d="M0 -450C28.8 -445.7 57.6 -441.4 87 -437.4C116.4 -433.4 146.5 -429.8 172.2 -415.7C197.9 -401.7 219.2 -377.4 232.8 -348.4C246.4 -319.4 252.4 -285.7 256 -256C259.6 -226.3 260.7 -200.6 272.7 -182.2C284.7 -163.8 307.5 -152.7 332.6 -137.8C357.7 -122.9 385.1 -104.2 405.1 -80.6C425 -57 437.5 -28.5 450 0L0 0Z" fill="#01101c"></path><path d="M0 -337.5C21.6 -334.3 43.2 -331.1 65.3 -328.1C87.3 -325.1 109.9 -322.3 129.2 -311.8C148.4 -301.3 164.4 -283.1 174.6 -261.3C184.8 -239.5 189.3 -214.2 192 -192C194.7 -169.7 195.6 -150.5 204.5 -136.7C213.5 -122.9 230.6 -114.5 249.4 -103.3C268.3 -92.1 288.8 -78.1 303.8 -60.4C318.8 -42.7 328.1 -21.4 337.5 0L0 0Z" fill="#010c17"></path><path d="M0 -225C14.4 -222.9 28.8 -220.7 43.5 -218.7C58.2 -216.7 73.3 -214.9 86.1 -207.9C98.9 -200.9 109.6 -188.7 116.4 -174.2C123.2 -159.7 126.2 -142.8 128 -128C129.8 -113.1 130.4 -100.3 136.4 -91.1C142.4 -81.9 153.7 -76.3 166.3 -68.9C178.8 -61.4 192.6 -52.1 202.5 -40.3C212.5 -28.5 218.8 -14.2 225 0L0 0Z" fill="#010711"></path><path d="M0 -112.5C7.2 -111.4 14.4 -110.4 21.8 -109.4C29.1 -108.4 36.6 -107.4 43.1 -103.9C49.5 -100.4 54.8 -94.4 58.2 -87.1C61.6 -79.8 63.1 -71.4 64 -64C64.9 -56.6 65.2 -50.2 68.2 -45.6C71.2 -41 76.9 -38.2 83.1 -34.4C89.4 -30.7 96.3 -26 101.3 -20.1C106.3 -14.2 109.4 -7.1 112.5 0L0 0Z" fill="#00050e"></path></g></svg>