<svg id="visual" viewBox="0 0 675 900" width="675" height="900" xmlns="http://www.w3.org/2000/svg" xmlns:xlink="http://www.w3.org/1999/xlink" version="1.1"><rect x="0" y="0" width="675" height="900" fill="#01121e"></rect><defs><linearGradient id="grad1_0" x1="0%" y1="0%" x2="100%" y2="100%"><stop offset="30%" stop-color="#000508" stop-opacity="1"></stop><stop offset="70%" stop-color="#000508" stop-opacity="1"></stop></linearGradient></defs><defs><linearGradient id="grad1_1" x1="0%" y1="0%" x2="100%" y2="100%"><stop offset="30%" stop-color="#000508" stop-opacity="1"></stop><stop offset="70%" stop-color="#000d15" stop-opacity="1"></stop></linearGradient></defs><defs><linearGradient id="grad1_2" x1="0%" y1="0%" x2="100%" y2="100%"><stop offset="30%" stop-color="#01121e" stop-opacity="1"></stop><stop offset="70%" stop-color="#000d15" stop-opacity="1"></stop></linearGradient></defs><defs><linearGradient id="grad2_0" x1="0%" y1="0%" x2="100%" y2="100%"><stop offset="30%" stop-color="#000508" stop-opacity="1"></stop><stop offset="70%" stop-color="#000508" stop-opacity="1"></stop></linearGradient></defs><defs><linearGradient id="grad2_1" x1="0%" y1="0%" x2="100%" y2="100%"><stop offset="30%" stop-color="#000d15" stop-opacity="1"></stop><stop offset="70%" stop-color="#000508" stop-opacity="1"></stop></linearGradient></defs><defs><linearGradient id="grad2_2" x1="0%" y1="0%" x2="100%" y2="100%"><stop offset="30%" stop-color="#000d15" stop-opacity="1"></stop><stop offset="70%" stop-color="#01121e" stop-opacity="1"></stop></linearGradient></defs><g transform="translate(675, 0)"><path d="M0 365.6C-25 333.9 -50 302.2 -78.7 293.6C-107.4 285.1 -139.8 299.7 -171 296.2C-202.2 292.6 -232.1 270.9 -240.4 240.4C-248.7 210 -235.3 170.8 -255.5 147.5C-275.6 124.2 -329.2 116.6 -353.2 94.6C-377.1 72.7 -371.4 36.3 -365.6 0L0 0Z" fill="#001019"></path><path d="M0 243.8C-16.7 222.6 -33.3 201.5 -52.5 195.8C-71.6 190.1 -93.2 199.8 -114 197.5C-134.8 195.1 -154.8 180.6 -160.3 160.3C-165.8 140 -156.9 113.9 -170.3 98.3C-183.7 82.8 -219.5 77.7 -235.4 63.1C-251.4 48.5 -247.6 24.2 -243.7 0L0 0Z" fill="#00090f"></path><path d="M0 121.9C-8.3 111.3 -16.7 100.7 -26.2 97.9C-35.8 95 -46.6 99.9 -57 98.7C-67.4 97.5 -77.4 90.3 -80.1 80.1C-82.9 70 -78.4 56.9 -85.2 49.2C-91.9 41.4 -109.7 38.9 -117.7 31.5C-125.7 24.2 -123.8 12.1 -121.9 0L0 0Z" fill="#000508"></path></g><g transform="translate(0, 900)"><path d="M0 -365.6C35.6 -370.6 71.1 -375.5 94.6 -353.2C118.1 -330.8 129.5 -281.1 146.5 -253.7C163.5 -226.4 186.1 -221.3 210.7 -210.7C235.4 -200.1 262 -184 282.3 -163C302.6 -142 316.6 -116.2 329.4 -88.3C342.2 -60.3 353.9 -30.1 365.6 0L0 0Z" fill="#001019"></path><path d="M0 -243.7C23.7 -247.1 47.4 -250.4 63.1 -235.4C78.7 -220.5 86.3 -187.4 97.7 -169.2C109 -150.9 124.1 -147.5 140.5 -140.5C156.9 -133.4 174.7 -122.6 188.2 -108.7C201.8 -94.7 211 -77.5 219.6 -58.8C228.1 -40.2 235.9 -20.1 243.8 0L0 0Z" fill="#00090f"></path><path d="M0 -121.9C11.9 -123.5 23.7 -125.2 31.5 -117.7C39.4 -110.3 43.2 -93.7 48.8 -84.6C54.5 -75.5 62 -73.8 70.2 -70.2C78.5 -66.7 87.3 -61.3 94.1 -54.3C100.9 -47.3 105.5 -38.7 109.8 -29.4C114.1 -20.1 118 -10 121.9 0L0 0Z" fill="#000508"></path></g></svg>