<svg id="visual" viewBox="0 0 675 900" width="675" height="900" xmlns="http://www.w3.org/2000/svg" xmlns:xlink="http://www.w3.org/1999/xlink" version="1.1"><rect x="0" y="0" width="675" height="900" fill="#f0f9ff"></rect><defs><linearGradient id="grad1_0" x1="0%" y1="0%" x2="100%" y2="100%"><stop offset="30%" stop-color="#c8e8fe" stop-opacity="1"></stop><stop offset="70%" stop-color="#c8e8fe" stop-opacity="1"></stop></linearGradient></defs><defs><linearGradient id="grad1_1" x1="0%" y1="0%" x2="100%" y2="100%"><stop offset="30%" stop-color="#c8e8fe" stop-opacity="1"></stop><stop offset="70%" stop-color="#f0f9ff" stop-opacity="1"></stop></linearGradient></defs><defs><linearGradient id="grad2_0" x1="0%" y1="0%" x2="100%" y2="100%"><stop offset="30%" stop-color="#c8e8fe" stop-opacity="1"></stop><stop offset="70%" stop-color="#c8e8fe" stop-opacity="1"></stop></linearGradient></defs><defs><linearGradient id="grad2_1" x1="0%" y1="0%" x2="100%" y2="100%"><stop offset="30%" stop-color="#f0f9ff" stop-opacity="1"></stop><stop offset="70%" stop-color="#c8e8fe" stop-opacity="1"></stop></linearGradient></defs><g transform="translate(675, 0)"><path d="M0 225C-33.9 226.4 -67.8 227.8 -86.1 207.9C-104.4 187.9 -107.1 146.6 -123.7 123.7C-140.4 100.9 -171.1 96.4 -190.3 78.8C-209.5 61.3 -217.3 30.6 -225 0L0 0Z" fill="#dcf1fe"></path><path d="M0 112.5C-17 113.2 -33.9 113.9 -43.1 103.9C-52.2 94 -53.5 73.3 -61.9 61.9C-70.2 50.4 -85.6 48.2 -95.2 39.4C-104.8 30.6 -108.6 15.3 -112.5 0L0 0Z" fill="#c8e8fe"></path></g><g transform="translate(0, 900)"><path d="M0 -225C33.3 -223.4 66.6 -221.8 83.4 -201.4C100.2 -181 100.6 -141.8 122.3 -122.3C144.1 -102.9 187.2 -103.2 207.9 -86.1C228.6 -69 226.8 -34.5 225 0L0 0Z" fill="#dcf1fe"></path><path d="M0 -112.5C16.7 -111.7 33.3 -110.9 41.7 -100.7C50.1 -90.5 50.3 -70.9 61.2 -61.2C72 -51.4 93.6 -51.6 103.9 -43.1C114.3 -34.5 113.4 -17.3 112.5 0L0 0Z" fill="#c8e8fe"></path></g></svg>