<svg id="visual" viewBox="0 0 900 600" width="900" height="600" xmlns="http://www.w3.org/2000/svg" xmlns:xlink="http://www.w3.org/1999/xlink" version="1.1"><rect x="0" y="0" width="900" height="600" fill="#F0F9FF"></rect><defs><linearGradient id="grad1_0" x1="33.3%" y1="100%" x2="100%" y2="0%"><stop offset="20%" stop-color="#f0f9ff" stop-opacity="1"></stop><stop offset="80%" stop-color="#f0f9ff" stop-opacity="1"></stop></linearGradient></defs><defs><linearGradient id="grad2_0" x1="0%" y1="100%" x2="66.7%" y2="0%"><stop offset="20%" stop-color="#f0f9ff" stop-opacity="1"></stop><stop offset="80%" stop-color="#f0f9ff" stop-opacity="1"></stop></linearGradient></defs><g transform="translate(900, 600)"><path d="M-216.3 0C-214.1 -30.6 -211.9 -61.2 -195.9 -81.1C-179.9 -101 -150.1 -110.1 -130.8 -130.8C-111.6 -151.5 -102.8 -183.7 -82.8 -199.9C-62.7 -216 -31.4 -216.2 0 -216.3L0 0Z" fill="#d0ecfe"></path></g><g transform="translate(0, 0)"><path d="M216.3 0C202.5 23.8 188.6 47.7 180.2 74.6C171.7 101.6 168.7 131.7 153 153C137.2 174.3 108.7 186.8 81.1 195.9C53.5 205 26.8 210.6 0 216.3L0 0Z" fill="#d0ecfe"></path></g></svg>