<svg id="visual" viewBox="0 0 675 900" width="675" height="900" xmlns="http://www.w3.org/2000/svg" xmlns:xlink="http://www.w3.org/1999/xlink" version="1.1"><rect x="0" y="0" width="675" height="900" fill="#f0f9ff"></rect><defs><linearGradient id="grad1_0" x1="0%" y1="0%" x2="100%" y2="100%"><stop offset="30%" stop-color="#c8e8fe" stop-opacity="1"></stop><stop offset="70%" stop-color="#c8e8fe" stop-opacity="1"></stop></linearGradient></defs><defs><linearGradient id="grad1_1" x1="0%" y1="0%" x2="100%" y2="100%"><stop offset="30%" stop-color="#c8e8fe" stop-opacity="1"></stop><stop offset="70%" stop-color="#dcf1fe" stop-opacity="1"></stop></linearGradient></defs><defs><linearGradient id="grad1_2" x1="0%" y1="0%" x2="100%" y2="100%"><stop offset="30%" stop-color="#f0f9ff" stop-opacity="1"></stop><stop offset="70%" stop-color="#dcf1fe" stop-opacity="1"></stop></linearGradient></defs><defs><linearGradient id="grad2_0" x1="0%" y1="0%" x2="100%" y2="100%"><stop offset="30%" stop-color="#c8e8fe" stop-opacity="1"></stop><stop offset="70%" stop-color="#c8e8fe" stop-opacity="1"></stop></linearGradient></defs><defs><linearGradient id="grad2_1" x1="0%" y1="0%" x2="100%" y2="100%"><stop offset="30%" stop-color="#dcf1fe" stop-opacity="1"></stop><stop offset="70%" stop-color="#c8e8fe" stop-opacity="1"></stop></linearGradient></defs><defs><linearGradient id="grad2_2" x1="0%" y1="0%" x2="100%" y2="100%"><stop offset="30%" stop-color="#dcf1fe" stop-opacity="1"></stop><stop offset="70%" stop-color="#f0f9ff" stop-opacity="1"></stop></linearGradient></defs><g transform="translate(675, 0)"><path d="M0 225C-27.2 217 -54.4 209 -82.7 199.6C-110.9 190.1 -140.2 179.3 -159.1 159.1C-178 138.9 -186.6 109.2 -195.9 81.1C-205.1 53 -215.1 26.5 -225 0L0 0Z" fill="#e6f5ff"></path><path d="M0 150C-18.1 144.7 -36.3 139.3 -55.1 133C-73.9 126.8 -93.4 119.6 -106.1 106.1C-118.7 92.6 -124.4 72.8 -130.6 54.1C-136.7 35.4 -143.4 17.7 -150 0L0 0Z" fill="#d2ecfe"></path><path d="M0 75C-9.1 72.3 -18.1 69.7 -27.6 66.5C-37 63.4 -46.7 59.8 -53 53C-59.3 46.3 -62.2 36.4 -65.3 27C-68.4 17.7 -71.7 8.8 -75 0L0 0Z" fill="#c8e8fe"></path></g><g transform="translate(0, 900)"><path d="M0 -225C28.8 -222.1 57.7 -219.1 86.1 -207.9C114.5 -196.6 142.5 -177 150.6 -150.6C158.7 -124.2 147 -90.9 156.1 -64.7C165.2 -38.4 195.1 -19.2 225 0L0 0Z" fill="#e6f5ff"></path><path d="M0 -150C19.2 -148 38.5 -146.1 57.4 -138.6C76.3 -131.1 95 -118 100.4 -100.4C105.8 -82.8 98 -60.6 104.1 -43.1C110.2 -25.6 130.1 -12.8 150 0L0 0Z" fill="#d2ecfe"></path><path d="M0 -75C9.6 -74 19.2 -73 28.7 -69.3C38.2 -65.5 47.5 -59 50.2 -50.2C52.9 -41.4 49 -30.3 52 -21.6C55.1 -12.8 65 -6.4 75 0L0 0Z" fill="#c8e8fe"></path></g></svg>