<svg id="visual" viewBox="0 0 900 600" width="900" height="600" xmlns="http://www.w3.org/2000/svg" xmlns:xlink="http://www.w3.org/1999/xlink" version="1.1"><path d="M0 61L30 69C60 77 120 93 180 97C240 101 300 93 360 84C420 75 480 65 540 65C600 65 660 75 720 76C780 77 840 69 870 65L900 61L900 0L870 0C840 0 780 0 720 0C660 0 600 0 540 0C480 0 420 0 360 0C300 0 240 0 180 0C120 0 60 0 30 0L0 0Z" fill="#3d3b3b"></path><path d="M0 181L30 190C60 199 120 217 180 217C240 217 300 199 360 184C420 169 480 157 540 162C600 167 660 189 720 196C780 203 840 195 870 191L900 187L900 59L870 63C840 67 780 75 720 74C660 73 600 63 540 63C480 63 420 73 360 82C300 91 240 99 180 95C120 91 60 75 30 67L0 59Z" fill="#2b2929"></path><path d="M0 259L30 267C60 275 120 291 180 291C240 291 300 275 360 263C420 251 480 243 540 248C600 253 660 271 720 277C780 283 840 277 870 274L900 271L900 185L870 189C840 193 780 201 720 194C660 187 600 165 540 160C480 155 420 167 360 182C300 197 240 215 180 215C120 215 60 197 30 188L0 179Z" fill="#1a1919"></path><path d="M0 421L30 423C60 425 120 429 180 430C240 431 300 429 360 419C420 409 480 391 540 395C600 399 660 425 720 436C780 447 840 443 870 441L900 439L900 269L870 272C840 275 780 281 720 275C660 269 600 251 540 246C480 241 420 249 360 261C300 273 240 289 180 289C120 289 60 273 30 265L0 257Z" fill="#181717"></path><path d="M0 601L30 601C60 601 120 601 180 601C240 601 300 601 360 601C420 601 480 601 540 601C600 601 660 601 720 601C780 601 840 601 870 601L900 601L900 437L870 439C840 441 780 445 720 434C660 423 600 397 540 393C480 389 420 407 360 417C300 427 240 429 180 428C120 427 60 423 30 421L0 419Z" fill="#151414"></path></svg>