<svg id="visual" viewBox="0 0 900 600" width="900" height="600" xmlns="http://www.w3.org/2000/svg" xmlns:xlink="http://www.w3.org/1999/xlink" version="1.1"><path d="M0 187L30 182C60 177 120 167 180 162C240 157 300 157 360 160C420 163 480 169 540 166C600 163 660 151 720 143C780 135 840 131 870 129L900 127L900 0L870 0C840 0 780 0 720 0C660 0 600 0 540 0C480 0 420 0 360 0C300 0 240 0 180 0C120 0 60 0 30 0L0 0Z" fill="#151414"></path><path d="M0 247L30 241C60 235 120 223 180 222C240 221 300 231 360 240C420 249 480 257 540 252C600 247 660 229 720 219C780 209 840 207 870 206L900 205L900 125L870 127C840 129 780 133 720 141C660 149 600 161 540 164C480 167 420 161 360 158C300 155 240 155 180 160C120 165 60 175 30 180L0 185Z" fill="#181717"></path><path d="M0 343L30 336C60 329 120 315 180 315C240 315 300 329 360 336C420 343 480 343 540 338C600 333 660 323 720 312C780 301 840 289 870 283L900 277L900 203L870 204C840 205 780 207 720 217C660 227 600 245 540 250C480 255 420 247 360 238C300 229 240 219 180 220C120 221 60 233 30 239L0 245Z" fill="#1a1919"></path><path d="M0 463L30 467C60 471 120 479 180 490C240 501 300 515 360 512C420 509 480 489 540 488C600 487 660 505 720 504C780 503 840 483 870 473L900 463L900 275L870 281C840 287 780 299 720 310C660 321 600 331 540 336C480 341 420 341 360 334C300 327 240 313 180 313C120 313 60 327 30 334L0 341Z" fill="#2b2929"></path><path d="M0 601L30 601C60 601 120 601 180 601C240 601 300 601 360 601C420 601 480 601 540 601C600 601 660 601 720 601C780 601 840 601 870 601L900 601L900 461L870 471C840 481 780 501 720 502C660 503 600 485 540 486C480 487 420 507 360 510C300 513 240 499 180 488C120 477 60 469 30 465L0 461Z" fill="#3d3b3b"></path></svg>